<svg width="1216" height="32" viewBox="0 0 1216 32" fill="none" xmlns="http://www.w3.org/2000/svg">
<g clip-path="url(#clip0_2_107)">
<path fill-rule="evenodd" clip-rule="evenodd" d="M27.5153 10.8572V20.28C27.5153 23.0232 28.3213 24.3786 30.449 24.3786C32.9313 24.3786 33.9953 22.9907 33.9953 19.6028V10.8572H38.5562V27.5462H34.2202L34.2107 25.056C33.0689 27.0734 30.9651 28.0001 29.0305 28.0001C24.1748 28.0001 22.9544 25.2516 22.9544 21.1193V10.8572H27.5153ZM109.342 10.3689C114.579 10.3689 117.945 13.837 117.945 19.2009C117.945 24.5322 114.579 28.0001 109.342 28.0001C104.137 28.0001 100.771 24.5322 100.771 19.2009C100.771 13.837 104.137 10.3689 109.342 10.3689ZM78.4314 10.2668C84.0443 10.2668 86.7549 15.0195 86.4363 20.1699H74.5401C74.6682 23.0757 76.0714 24.3993 78.5907 24.3993C80.4086 24.3993 81.8755 23.2694 82.163 22.2366H86.1495C84.8736 26.1577 82.163 27.8196 78.4314 27.8196C73.2326 27.8196 70.0113 24.238 70.0113 19.0713C70.0113 14.0445 73.4243 10.2668 78.4314 10.2668ZM61.3752 10.3159C64.8966 10.3159 67.4286 11.965 67.4286 16.2933V27.4587H62.8771V18.0034C62.8771 15.777 62.6853 13.9375 60.097 13.9375C57.541 13.9375 57.0616 16.0676 57.0616 18.1649V27.4587H52.5102V17.9838C52.5141 16.0759 52.5808 13.9375 49.7619 13.9375C48.8669 13.9375 46.6945 14.5186 46.6945 17.7775V27.4587H42.1429V10.7697H46.4378L46.4344 13.1367C47.5987 11.3715 49.4106 10.3159 51.5513 10.3159C53.6321 10.3159 55.491 11.092 56.3886 13.0966C57.3491 11.6418 59.0746 10.3159 61.3752 10.3159ZM98.8854 10.3159C99.2091 10.3159 99.597 10.3801 99.8875 10.4759V14.7122C99.4677 14.6156 98.7891 14.551 98.2395 14.551C94.8792 14.551 93.7159 16.9714 93.7159 19.948V27.4587H89.1277V10.7742H93.4897L93.4881 13.9601C94.3509 11.7919 96.656 10.3159 98.8854 10.3159ZM5.00585 4.36097L14.6541 19.953L14.6514 4.36097H19.3678V27.4587H14.3296L4.71713 11.8795L4.71659 27.4587H0V4.36097H5.00585ZM109.342 13.8043C106.256 13.8043 105.323 16.5026 105.323 19.2009C105.323 21.8665 106.256 24.565 109.342 24.565C112.46 24.565 113.393 21.8665 113.393 19.2009C113.393 16.5026 112.46 13.8043 109.342 13.8043ZM78.3036 13.687C75.4336 13.687 74.6043 15.9625 74.5401 17.2627H81.9076C81.493 14.9221 80.5042 13.6869 78.3038 13.6869L78.3036 13.687ZM83.9656 4.08325L79.0545 8.65408H75.8966L78.9585 4.08343H83.9654L83.9656 4.08325Z" fill="black"/>
</g>
<g clip-path="url(#clip1_2_107)">
<path d="M251.898 0.287087H258.454C262.102 0.287087 264.008 2.08948 264.008 4.30213C264.008 5.83102 263.106 6.8676 261.856 7.41734V7.45563C263.455 8.00538 264.357 9.217 264.357 10.765C264.357 12.9777 262.574 14.9168 258.723 14.9168H251.898V0.287087ZM258.251 6.08538C259.338 6.08538 259.827 5.55751 259.827 4.96948C259.827 4.38145 259.335 3.83444 258.251 3.83444H256.325V6.08538H258.251ZM258.311 11.3722C259.458 11.3722 260.01 10.8444 260.01 10.1579C260.01 9.47136 259.438 8.9435 258.331 8.9435H256.322V11.3722H258.311ZM265.298 8.96264V0.287087H269.765V8.92435C269.765 10.549 270.606 11.4105 272.04 11.4105C273.473 11.4105 274.374 10.549 274.374 8.90247V0.284352H278.861V8.95991C278.861 12.6413 276.28 15.2861 272.037 15.2861C267.793 15.2861 265.295 12.6413 265.295 8.95991L265.298 8.96264ZM290.235 0.992728V4.75341C289.271 4.10794 287.634 3.65666 286.301 3.65666C285.09 3.65666 284.478 4.02863 284.478 4.5182C284.478 5.00777 285.153 5.26213 286.363 5.67239C288.412 6.35888 291.199 7.27786 291.199 10.3931C291.199 13.1746 289.007 15.2314 285.156 15.2314C283.167 15.2314 281.345 14.6844 280.217 13.9596V10.0047C281.325 10.8662 283.004 11.5527 284.624 11.5527C285.997 11.5527 286.632 11.0632 286.632 10.5134C286.632 9.80777 285.588 9.49598 284.338 9.06384C282.698 8.49495 280.097 7.47752 280.097 4.63854C280.097 2.07307 282.209 -0.0219727 285.977 -0.0219727C287.637 -0.0219727 289.133 0.388284 290.238 0.995463H290.235V0.992728ZM292.344 0.287087H296.81V14.9168H292.344V0.287087ZM312.691 14.9168H308.43L302.919 7.06179H302.899V14.9168H298.659V0.287087H302.919L308.43 8.00264H308.45V0.287087H312.691V14.9168ZM314.534 0.287087H325.106V4.08606H319V5.84743H324.491V9.29358H319V11.1151H325.106V14.9141H314.534V0.284352V0.287087ZM336.314 0.992728V4.75341C335.35 4.10794 333.713 3.65666 332.38 3.65666C331.172 3.65666 330.557 4.02863 330.557 4.5182C330.557 5.00777 331.232 5.26213 332.443 5.67239C334.492 6.35888 337.278 7.27786 337.278 10.3931C337.278 13.1746 335.087 15.2314 331.235 15.2314C329.247 15.2314 327.424 14.6844 326.297 13.9596V10.0047C327.404 10.8662 329.084 11.5527 330.703 11.5527C332.077 11.5527 332.712 11.0632 332.712 10.5134C332.712 9.80777 331.667 9.49598 330.417 9.06384C328.777 8.49495 326.176 7.47752 326.176 4.63854C326.176 2.07307 328.288 -0.0219727 332.056 -0.0219727C333.716 -0.0219727 335.213 0.388284 336.317 0.995463L336.314 0.992728ZM348.137 0.992728V4.75341C347.173 4.10794 345.536 3.65666 344.203 3.65666C342.995 3.65666 342.38 4.02863 342.38 4.5182C342.38 5.00777 343.056 5.26213 344.266 5.67239C346.315 6.35888 349.102 7.27786 349.102 10.3931C349.102 13.1746 346.91 15.2314 343.058 15.2314C341.07 15.2314 339.247 14.6844 338.12 13.9596V10.0047C339.227 10.8662 340.907 11.5527 342.526 11.5527C343.9 11.5527 344.535 11.0632 344.535 10.5134C344.535 9.80777 343.49 9.49598 342.24 9.06384C340.601 8.49495 338 7.47752 338 4.63854C338 2.07307 340.111 -0.0219727 343.88 -0.0219727C345.539 -0.0219727 347.036 0.388284 348.14 0.995463L348.137 0.992728ZM261.704 31.658H266.171V17.0283H261.704V31.658ZM282.051 17.0283H277.811V24.7438H277.791L272.28 17.0283H268.019V31.658H272.26V23.803H272.28L277.791 31.658H282.051V17.0283ZM289.242 16.7138C285.471 16.7138 283.362 18.8088 283.362 21.3743C283.362 24.2132 285.963 25.2334 287.602 25.7996C288.853 26.2317 289.897 26.5435 289.897 27.2491C289.897 27.7989 289.262 28.2885 287.889 28.2885C286.269 28.2885 284.589 27.602 283.482 26.7404V30.6953C284.609 31.4201 286.432 31.9671 288.421 31.9671C292.272 31.9671 294.464 29.9103 294.464 27.1288C294.464 24.0136 291.677 23.0946 289.628 22.4081C288.421 21.9979 287.743 21.7626 287.743 21.2512C287.743 20.7397 288.358 20.3897 289.565 20.3897C290.896 20.3897 292.535 20.8409 293.5 21.4864V17.7257C292.392 17.1185 290.899 16.7083 289.239 16.7083V16.7138H289.242ZM295.508 31.658H299.975V17.0283H295.508V31.658ZM306.284 27.7989H307.146C309.46 27.7989 310.957 26.5462 310.957 24.3527C310.957 22.1592 309.46 20.8874 307.146 20.8874H306.284V27.8016V27.7989ZM315.463 24.3527C315.463 28.7589 311.981 31.658 306.98 31.658H301.818V17.0283H306.98C311.978 17.0283 315.463 19.9466 315.463 24.3527ZM316.674 31.658H327.247V27.8591H321.14V26.0375H326.631V22.5914H321.14V20.83H327.247V17.031H316.674V31.6608V31.658ZM334.277 23.9425C335.404 23.9425 336.286 23.4338 336.286 22.4136C336.286 21.3934 335.404 20.8847 334.257 20.8847H333.315V23.9397H334.28L334.277 23.9425ZM341.591 31.658H336.326L333.416 27.1343H333.313V31.658H328.846V17.0283H334.297C338.128 17.0283 340.792 18.6529 340.792 22.1209C340.792 23.4912 340.157 25.4905 337.616 26.5079L341.591 31.658Z" fill="black"/>
</g>
<path d="M629.114 25.2785H636.879V25.2202L635.778 24.6074C634.499 23.878 634.499 23.382 634.499 21.1936V15.5332L642.026 23.2069C643.96 25.1326 645.329 25.7162 647.114 25.7162C648.126 25.7171 649.117 25.4336 649.97 24.8992V24.8408C648.423 24.6074 646.727 23.7613 645.031 22.069L636.939 14.1034L644.139 7.97613C645.158 7.11628 646.301 6.40842 647.531 5.87533L648.483 5.40849V5.35013H641.64V5.40849L642.235 5.96286C642.949 6.60477 643.068 7.04244 642.324 7.68435L634.469 14.4828V9.43501C634.469 7.24668 634.469 6.75066 635.749 6.02122L636.849 5.40849V5.35013H629.114V5.40849L630.215 6.02122C631.494 6.75066 631.494 7.24668 631.494 9.43501V21.1936C631.494 23.382 631.494 23.878 630.215 24.6074L629.084 25.2202L629.114 25.2785ZM607.484 5.40849L608.614 6.02122C609.864 6.75066 609.864 7.24668 609.864 9.43501V22.7692C609.864 23.9947 609.686 24.2281 608.852 24.6658L607.781 25.2493V25.3077H618.79C619.536 25.2792 620.283 25.3183 621.021 25.4244L621.467 20.4058H621.408L620.456 21.6897C619.206 23.382 618.522 23.8196 615.904 23.8196C614.889 23.8419 613.874 23.7834 612.869 23.6446V9.43501C612.869 7.24668 612.869 6.75066 614.119 6.02122L615.249 5.40849V5.35013H607.484V5.40849ZM581.302 15.008C581.302 10.0769 584.485 6.51724 589.335 6.51724C593.917 6.51724 597.309 10.4562 597.309 15.6207C597.309 20.5517 594.185 24.1114 589.335 24.1114C584.753 24.1114 581.302 20.2016 581.302 15.008ZM578.089 15.5915C578.089 21.1645 583.384 25.6286 589.335 25.6286C595.285 25.6286 600.581 20.9602 600.581 15.0371C600.581 9.46419 595.285 5 589.335 5C583.384 5 578.089 9.66844 578.089 15.5915ZM557.678 25.2785H566.039V25.2202L564.908 24.6366C563.153 23.7321 563.064 23.2069 563.064 21.1353V15.4164H566.366C567.764 15.4164 568.568 15.6207 568.955 16.2334L569.312 16.7586H569.371L569.817 12.2944H569.758L569.252 12.9072C568.717 13.6074 568.092 13.9576 566.664 13.9576H563.093V6.95491L566.247 6.80902C568.211 6.72149 568.806 7.04244 569.52 8.41379L570.115 9.63926H570.204L570.65 5.20424C569.862 5.31 569.066 5.35876 568.27 5.35013H557.708V5.40849L558.839 6.02122C560.118 6.75066 560.118 7.24668 560.118 9.43501V21.1936C560.118 23.382 560.118 23.878 558.839 24.6074L557.708 25.2202L557.678 25.2785ZM527.004 25.2785H534.055V25.2202L532.716 24.4615C531.556 23.7905 531.467 23.2361 531.467 21.6021V10.9231L546.462 25.5703H546.521V9.02653C546.521 7.39257 546.611 6.89655 547.771 6.19629L549.169 5.40849V5.35013H542.029V5.40849L543.427 6.19629C544.617 6.89655 544.706 7.39257 544.706 9.02653V19.7056L529.771 5.05836H529.711V21.6021C529.711 23.2361 529.622 23.7321 528.432 24.4324L527.033 25.2202L527.004 25.2785ZM510.491 25.2785H518.257V25.2202L517.126 24.6074C515.847 23.878 515.847 23.382 515.847 21.1936V9.43501C515.847 7.24668 515.847 6.75066 517.126 6.02122L518.257 5.40849V5.35013H510.521V5.40849L511.652 6.02122C512.901 6.75066 512.901 7.24668 512.901 9.43501V21.1936C512.901 23.382 512.901 23.878 511.652 24.6074L510.521 25.2202L510.491 25.2785ZM483 25.2785H490.765V25.2202L489.635 24.6074C488.385 23.878 488.385 23.382 488.385 21.1936V15.5332L495.913 23.2069C497.876 25.1326 499.215 25.7162 501 25.7162C502.013 25.7188 503.004 25.4351 503.856 24.8992V24.8408C502.309 24.6074 500.613 23.7613 498.888 22.069L490.855 14.1034L497.995 7.97613C498.977 7.1008 499.899 6.60477 501.446 5.84615L502.399 5.40849V5.35013H495.555V5.40849L496.151 5.93369C496.865 6.60477 496.984 7.01326 496.24 7.68435L488.355 14.4536V9.43501C488.355 7.24668 488.355 6.75066 489.605 6.02122L490.736 5.40849V5.35013H483V5.40849L484.131 6.02122C485.38 6.75066 485.38 7.24668 485.38 9.43501V21.1936C485.38 23.382 485.38 23.878 484.101 24.6074L483 25.2202V25.2785Z" fill="black"/>
<path d="M793.28 13.8814L792.914 17.0092H787.261V31.6247H784V0.376843H794.345L794.017 3.61317H787.261V13.8181H793.288L793.28 13.8814ZM883.331 3.61317H877.255V13.4081H881.506L881.5 13.4714L881.133 16.5992H877.255V17.3016V28.4336H882.042L882.036 28.4984L881.669 31.6247H877.255H873.993V0.37835H883.659L883.331 3.61317ZM810.169 32C807.24 32 805.489 29.9304 805.489 26.4634V22.1523H808.467V26.8388C808.467 28.105 808.988 28.9973 810.028 28.9973C811.162 28.9973 811.681 28.1999 811.681 26.8388C811.681 23.6959 810.782 21.0203 809.129 17.4086C807.664 14.2643 805.637 9.43313 805.637 6.19379C805.637 2.5761 807.102 0 810.457 0C813.057 0 814.709 1.97164 814.709 5.53808V10.1733H811.777V5.30293C811.777 3.89505 811.305 3.23633 810.453 3.23633C809.508 3.23633 808.846 3.84832 808.846 5.16124C808.846 6.97913 809.791 10.8893 811.587 14.9682C813.338 18.8617 814.849 22.7101 814.849 25.9931C814.849 30.871 812.058 31.9985 810.169 31.9985V32ZM913.32 32C910.39 32 908.641 29.9364 908.641 26.4634V22.1523H911.623V26.8388C911.623 28.105 912.144 28.9973 913.184 28.9973C914.318 28.9973 914.837 28.1999 914.837 26.8388C914.837 23.6959 913.938 21.0203 912.285 17.4086C910.82 14.2643 908.793 9.43313 908.793 6.19379C908.793 2.5761 910.258 0 913.613 0C916.213 0 917.865 1.97164 917.865 5.53808V10.1733H914.928V5.30293C914.928 3.89505 914.456 3.23783 913.604 3.23783C912.66 3.23783 911.998 3.84832 911.998 5.16275C911.998 6.98064 912.942 10.8908 914.739 14.9697C916.482 18.8617 918 22.7101 918 25.9946C918 30.8725 915.211 32 913.32 32ZM823.924 31.6247V16.7982H821.23V31.6247H817.92V0.376843H821.23V13.4684H823.924V0.376843H827.184V31.6247H823.924ZM830.454 0.376843H833.761V31.6247H830.454V0.376843ZM841.475 32C838.922 32 836.796 29.8414 836.796 26.6518V5.34966C836.796 2.20529 838.922 0 841.475 0C844.027 0 846.154 2.20529 846.154 5.34966V26.6518C846.154 29.8414 844.028 32 841.475 32ZM842.841 4.92609C842.841 4.08347 842.322 3.41872 841.475 3.41872C840.577 3.41872 840.108 4.07593 840.108 4.92609V27.0739C840.108 27.9648 840.58 28.5813 841.475 28.5813C842.325 28.5813 842.841 27.9783 842.841 27.0739V4.92609ZM856.464 31.6247L852.823 15.8606L852.018 11.355V31.6247H849.138V0.376843H852.445L855.471 16.1409L856.178 20.6917V0.376843H859.062V31.6247H856.464ZM867.341 31.6247H862.027V0.376843H867.341C869.183 0.376843 871.499 1.31443 871.499 5.30293V11.0747C871.499 12.7644 870.932 13.9387 869.657 14.6396C870.932 15.3933 871.499 16.5615 871.499 18.206V26.6986C871.499 30.6856 869.183 31.6247 867.341 31.6247ZM868.286 5.20948C868.286 4.12869 867.859 3.70211 867.244 3.70211H865.339V13.1865H867.103C867.812 13.1865 868.286 12.6227 868.286 11.5435V5.20948ZM868.286 17.8292C868.286 16.7982 867.812 16.1877 867.103 16.1877H865.339V28.3401H867.244C867.852 28.3401 868.286 27.8728 868.286 26.792V17.8292ZM890.518 31.6247L890.188 25.6193H887.539L887.025 31.6247H884.095L887.262 0.376843H890.808L893.926 31.6247H890.518ZM889.054 8.10966L887.823 22.2428H889.948L889.054 8.10966ZM903.409 31.6247L899.769 15.8606L898.966 11.355V31.6247H896.082V0.376843H899.391L902.416 16.1409L903.126 20.6917V0.376843H906.008V31.6247H903.409ZM800.368 31.6247L800.038 25.6193H797.39L796.871 31.6247H793.942L797.108 0.376843H800.653L803.774 31.6247H800.368ZM798.904 8.10966L797.676 22.2428H799.802L798.904 8.10966Z" fill="black"/>
<g clip-path="url(#clip2_2_107)">
<path d="M1056.52 6.44344V13.7768H1064.58V6.44344H1068.97V25.5601H1064.58V17.3134H1056.52V25.5601H1052.14V6.44344H1056.52ZM1078.14 18.1101V25.5601H1082.53V18.2268L1089.92 6.44344H1085.04L1080.41 14.0001L1075.75 6.44344H1070.84L1078.14 18.1101ZM1091.79 6.44344V25.5601H1096.17V18.7068H1100.78C1101.86 18.7329 1102.94 18.5552 1103.96 18.1834C1104.77 17.8794 1105.5 17.4082 1106.09 16.8034C1106.64 16.2409 1107.05 15.5693 1107.29 14.8368C1107.79 13.3615 1107.79 11.772 1107.29 10.2968C1107.05 9.56604 1106.64 8.89582 1106.1 8.33344C1105.5 7.73037 1104.77 7.25947 1103.96 6.95344C1102.95 6.58286 1101.87 6.40621 1100.78 6.43344L1091.79 6.44344ZM1096.17 15.4434V9.71011H1099.58C1100.06 9.70775 1100.55 9.74342 1101.03 9.81677C1101.46 9.87771 1101.88 10.018 1102.26 10.2301C1102.62 10.443 1102.91 10.7446 1103.11 11.1034C1103.34 11.5605 1103.45 12.0656 1103.43 12.5734C1103.45 13.0824 1103.34 13.5886 1103.11 14.0468C1102.91 14.4047 1102.62 14.7052 1102.26 14.9168C1101.88 15.1295 1101.46 15.271 1101.03 15.3334C1100.55 15.4051 1100.07 15.4408 1099.58 15.4401L1096.17 15.4434ZM1109.54 6.44344V25.5601H1124.66V22.0268H1113.92V17.3334H1123.58V14.0668H1113.92V9.97677H1124.44V6.44344H1109.54ZM1126.54 6.44344V25.5601H1136.19C1137.07 25.5576 1137.95 25.4456 1138.8 25.2268C1139.61 25.0268 1140.38 24.6881 1141.06 24.2268C1141.72 23.7803 1142.26 23.1883 1142.64 22.5001C1143.04 21.7243 1143.24 20.8646 1143.22 19.9968C1143.25 18.9095 1142.94 17.8389 1142.31 16.9301C1141.64 16.0472 1140.67 15.423 1139.56 15.1701C1140.37 14.8264 1141.07 14.2808 1141.58 13.5901C1142.07 12.8753 1142.31 12.0351 1142.28 11.1834C1142.3 10.4099 1142.15 9.64082 1141.82 8.93344C1141.53 8.34469 1141.08 7.84075 1140.52 7.47344C1139.91 7.08688 1139.23 6.81846 1138.52 6.68344C1137.66 6.5166 1136.79 6.43616 1135.92 6.44344H1126.54ZM1130.91 14.1801V9.71011H1135.02C1135.4 9.70857 1135.77 9.7398 1136.15 9.80344C1136.49 9.85749 1136.81 9.97045 1137.11 10.1368C1137.39 10.2973 1137.62 10.5276 1137.78 10.8034C1137.96 11.1421 1138.05 11.5199 1138.03 11.9001C1138.03 12.7046 1137.78 13.2857 1137.28 13.6434C1136.71 14.0189 1136.04 14.2063 1135.35 14.1768L1130.91 14.1801ZM1130.91 22.2934V17.0434H1135.69C1136.5 17.0029 1137.31 17.222 1137.98 17.6668C1138.55 18.0868 1138.84 18.7868 1138.84 19.7668C1138.86 20.1919 1138.77 20.6148 1138.58 21.0001C1138.42 21.3094 1138.17 21.5731 1137.87 21.7668C1137.55 21.9608 1137.2 22.0965 1136.82 22.1668C1136.42 22.2465 1136.01 22.2867 1135.6 22.2868L1130.91 22.2934ZM1145.09 6.44344V25.5601H1160.22V22.0268H1149.48V17.3334H1159.14V14.0668H1149.48V9.97677H1160V6.44344H1145.09ZM1169.62 6.44344L1162.09 25.5601H1166.5L1168.05 21.3034H1175.5L1177.01 25.5601H1181.56L1174.12 6.44344H1169.62ZM1169.2 18.1701L1171.8 11.1701H1171.87L1174.38 18.1701H1169.2ZM1186.17 20.8601C1185.92 20.3506 1185.8 19.7902 1185.83 19.2268H1181.57C1181.53 20.2822 1181.76 21.3315 1182.24 22.2801C1182.69 23.1155 1183.33 23.8392 1184.12 24.3934C1184.95 24.9612 1185.88 25.375 1186.86 25.6134C1187.9 25.8735 1188.98 26.0034 1190.06 26.0001C1191.27 26.0198 1192.48 25.867 1193.64 25.5468C1194.58 25.2873 1195.47 24.8549 1196.24 24.2734C1196.92 23.7559 1197.46 23.0909 1197.81 22.3334C1198.17 21.5673 1198.35 20.7362 1198.35 19.8968C1198.39 18.9695 1198.14 18.0515 1197.63 17.2601C1197.19 16.6071 1196.62 16.0469 1195.94 15.6134C1195.34 15.2231 1194.68 14.9209 1193.98 14.7168C1193.31 14.5301 1192.8 14.4001 1192.43 14.3268C1191.18 14.0268 1190.17 13.7734 1189.4 13.5801C1188.78 13.4373 1188.17 13.2432 1187.59 13.0001C1187.23 12.8634 1186.93 12.6321 1186.71 12.3334C1186.55 12.0551 1186.47 11.7405 1186.48 11.4234C1186.47 11.0707 1186.57 10.7227 1186.76 10.4234C1186.95 10.1573 1187.18 9.93027 1187.46 9.75677C1187.75 9.57487 1188.08 9.44715 1188.43 9.38011C1188.77 9.31103 1189.12 9.2753 1189.47 9.27344C1189.97 9.2709 1190.47 9.31556 1190.96 9.40677C1191.39 9.48759 1191.8 9.64109 1192.18 9.86011C1192.55 10.0746 1192.86 10.3779 1193.07 10.7401C1193.3 11.1801 1193.43 11.6637 1193.45 12.1568H1197.69C1197.71 11.1767 1197.48 10.2061 1197.02 9.33344C1196.59 8.56998 1195.99 7.91418 1195.25 7.42011C1194.47 6.90704 1193.61 6.53837 1192.69 6.33344C1191.71 6.10795 1190.7 5.99604 1189.69 6.00011C1188.79 5.99786 1187.89 6.10993 1187.02 6.33344C1186.15 6.55183 1185.34 6.91527 1184.61 7.40677C1183.91 7.88202 1183.33 8.49859 1182.9 9.21344C1182.44 9.99407 1182.22 10.8769 1182.24 11.7701C1182.22 12.5449 1182.39 13.3131 1182.76 14.0068C1183.09 14.6066 1183.55 15.1316 1184.11 15.5468C1184.69 15.9662 1185.33 16.303 1186.01 16.5468C1186.72 16.8105 1187.45 17.0331 1188.19 17.2134C1188.91 17.4112 1189.63 17.589 1190.33 17.7468C1190.98 17.8988 1191.62 18.0948 1192.23 18.3334C1192.74 18.5131 1193.19 18.7861 1193.59 19.1368C1193.76 19.2975 1193.89 19.4906 1193.98 19.704C1194.07 19.9175 1194.12 20.1465 1194.11 20.3768C1194.13 20.8062 1193.99 21.228 1193.72 21.5701C1193.45 21.8866 1193.11 22.1388 1192.72 22.3068C1192.33 22.4861 1191.91 22.6075 1191.48 22.6668C1191.06 22.7273 1190.65 22.7585 1190.23 22.7601C1189.66 22.7635 1189.1 22.6962 1188.55 22.5601C1188.04 22.4427 1187.57 22.2346 1187.14 21.9468C1186.73 21.6624 1186.4 21.2901 1186.18 20.8601M1205.51 9.97677V25.5601H1209.89V9.97677H1215.86V6.44344H1199.53V9.97677H1205.51Z" fill="black"/>
</g>
<defs>
<clipPath id="clip0_2_107">
<rect width="118" height="24" fill="white" transform="translate(0 4)"/>
</clipPath>
<clipPath id="clip1_2_107">
<rect width="97" height="32" fill="white" transform="translate(252)"/>
</clipPath>
<clipPath id="clip2_2_107">
<rect width="164" height="20" fill="white" transform="translate(1052 6)"/>
</clipPath>
</defs>
</svg>
