<svg width="1216" height="32" viewBox="0 0 1216 32" fill="none" xmlns="http://www.w3.org/2000/svg">
<g clip-path="url(#clip0_405_143)">
<path fill-rule="evenodd" clip-rule="evenodd" d="M27.5153 10.8571V20.2799C27.5153 23.0231 28.3213 24.3785 30.449 24.3785C32.9313 24.3785 33.9953 22.9906 33.9953 19.6026V10.8571H38.5562V27.5461H34.2202L34.2107 25.0559C33.0689 27.0733 30.9651 27.9999 29.0305 27.9999C24.1748 27.9999 22.9544 25.2515 22.9544 21.1192V10.8571H27.5153ZM109.342 10.3688C114.579 10.3688 117.945 13.8369 117.945 19.2008C117.945 24.532 114.579 27.9999 109.342 27.9999C104.137 27.9999 100.771 24.532 100.771 19.2008C100.771 13.8369 104.137 10.3688 109.342 10.3688ZM78.4314 10.2666C84.0443 10.2666 86.7549 15.0194 86.4363 20.1698H74.5401C74.6682 23.0756 76.0714 24.3992 78.5907 24.3992C80.4086 24.3992 81.8755 23.2692 82.163 22.2365H86.1495C84.8736 26.1575 82.163 27.8195 78.4314 27.8195C73.2326 27.8195 70.0113 24.2379 70.0113 19.0712C70.0113 14.0444 73.4243 10.2666 78.4314 10.2666ZM61.3752 10.3157C64.8966 10.3157 67.4286 11.9649 67.4286 16.2932V27.4586H62.8771V18.0033C62.8771 15.7769 62.6853 13.9374 60.097 13.9374C57.541 13.9374 57.0616 16.0674 57.0616 18.1648V27.4586H52.5102V17.9836C52.5141 16.0757 52.5808 13.9374 49.7619 13.9374C48.8669 13.9374 46.6945 14.5184 46.6945 17.7774V27.4586H42.1429V10.7696H46.4378L46.4344 13.1365C47.5987 11.3714 49.4106 10.3157 51.5513 10.3157C53.6321 10.3157 55.491 11.0919 56.3886 13.0965C57.3491 11.6417 59.0746 10.3157 61.3752 10.3157ZM98.8854 10.3157C99.2091 10.3157 99.597 10.38 99.8875 10.4758V14.7121C99.4677 14.6155 98.7891 14.5509 98.2395 14.5509C94.8792 14.5509 93.7159 16.9713 93.7159 19.9479V27.4586H89.1277V10.7741H93.4897L93.4881 13.9599C94.3509 11.7918 96.656 10.3157 98.8854 10.3157ZM5.00585 4.36084L14.6541 19.9529L14.6514 4.36084H19.3678V27.4586H14.3296L4.71713 11.8793L4.71659 27.4586H0V4.36084H5.00585ZM109.342 13.8042C106.256 13.8042 105.323 16.5025 105.323 19.2008C105.323 21.8664 106.256 24.5649 109.342 24.5649C112.46 24.5649 113.393 21.8664 113.393 19.2008C113.393 16.5025 112.46 13.8042 109.342 13.8042ZM78.3036 13.6869C75.4336 13.6869 74.6043 15.9624 74.5401 17.2626H81.9076C81.493 14.9219 80.5042 13.6867 78.3038 13.6867L78.3036 13.6869ZM83.9656 4.08313L79.0545 8.65396H75.8966L78.9585 4.08331H83.9654L83.9656 4.08313Z" fill="black"/>
</g>
<g clip-path="url(#clip1_405_143)">
<path d="M251.898 0.287209H258.454C262.102 0.287209 264.008 2.0896 264.008 4.30225C264.008 5.83114 263.106 6.86772 261.856 7.41747V7.45576C263.455 8.0055 264.357 9.21712 264.357 10.7652C264.357 12.9778 262.574 14.917 258.723 14.917H251.898V0.287209ZM258.251 6.0855C259.338 6.0855 259.827 5.55764 259.827 4.9696C259.827 4.38157 259.335 3.83456 258.251 3.83456H256.325V6.0855H258.251ZM258.311 11.3723C259.458 11.3723 260.01 10.8445 260.01 10.158C260.01 9.47148 259.438 8.94362 258.331 8.94362H256.322V11.3723H258.311ZM265.298 8.96276V0.287209H269.765V8.92447C269.765 10.5491 270.606 11.4106 272.04 11.4106C273.473 11.4106 274.374 10.5491 274.374 8.90259V0.284474H278.861V8.96003C278.861 12.6414 276.28 15.2862 272.037 15.2862C267.793 15.2862 265.295 12.6414 265.295 8.96003L265.298 8.96276ZM290.235 0.99285V4.75353C289.271 4.10806 287.634 3.65678 286.301 3.65678C285.09 3.65678 284.478 4.02875 284.478 4.51832C284.478 5.00789 285.153 5.26225 286.363 5.67251C288.412 6.359 291.199 7.27798 291.199 10.3932C291.199 13.1747 289.007 15.2315 285.156 15.2315C283.167 15.2315 281.345 14.6845 280.217 13.9597V10.0048C281.325 10.8664 283.004 11.5529 284.624 11.5529C285.997 11.5529 286.632 11.0633 286.632 10.5135C286.632 9.80789 285.588 9.4961 284.338 9.06396C282.698 8.49507 280.097 7.47764 280.097 4.63866C280.097 2.07319 282.209 -0.0218506 285.977 -0.0218506C287.637 -0.0218506 289.133 0.388406 290.238 0.995585H290.235V0.99285ZM292.344 0.287209H296.81V14.917H292.344V0.287209ZM312.691 14.917H308.43L302.919 7.06191H302.899V14.917H298.659V0.287209H302.919L308.43 8.00277H308.45V0.287209H312.691V14.917ZM314.534 0.287209H325.106V4.08618H319V5.84755H324.491V9.29371H319V11.1152H325.106V14.9142H314.534V0.284474V0.287209ZM336.314 0.99285V4.75353C335.35 4.10806 333.713 3.65678 332.38 3.65678C331.172 3.65678 330.557 4.02875 330.557 4.51832C330.557 5.00789 331.232 5.26225 332.443 5.67251C334.492 6.359 337.278 7.27798 337.278 10.3932C337.278 13.1747 335.087 15.2315 331.235 15.2315C329.247 15.2315 327.424 14.6845 326.297 13.9597V10.0048C327.404 10.8664 329.084 11.5529 330.703 11.5529C332.077 11.5529 332.712 11.0633 332.712 10.5135C332.712 9.80789 331.667 9.4961 330.417 9.06396C328.777 8.49507 326.176 7.47764 326.176 4.63866C326.176 2.07319 328.288 -0.0218506 332.056 -0.0218506C333.716 -0.0218506 335.213 0.388406 336.317 0.995585L336.314 0.99285ZM348.137 0.99285V4.75353C347.173 4.10806 345.536 3.65678 344.203 3.65678C342.995 3.65678 342.38 4.02875 342.38 4.51832C342.38 5.00789 343.056 5.26225 344.266 5.67251C346.315 6.359 349.102 7.27798 349.102 10.3932C349.102 13.1747 346.91 15.2315 343.058 15.2315C341.07 15.2315 339.247 14.6845 338.12 13.9597V10.0048C339.227 10.8664 340.907 11.5529 342.526 11.5529C343.9 11.5529 344.535 11.0633 344.535 10.5135C344.535 9.80789 343.49 9.4961 342.24 9.06396C340.601 8.49507 338 7.47764 338 4.63866C338 2.07319 340.111 -0.0218506 343.88 -0.0218506C345.539 -0.0218506 347.036 0.388406 348.14 0.995585L348.137 0.99285ZM261.704 31.6582H266.171V17.0284H261.704V31.6582ZM282.051 17.0284H277.811V24.744H277.791L272.28 17.0284H268.019V31.6582H272.26V23.8031H272.28L277.791 31.6582H282.051V17.0284ZM289.242 16.7139C285.471 16.7139 283.362 18.8089 283.362 21.3744C283.362 24.2134 285.963 25.2335 287.602 25.7997C288.853 26.2318 289.897 26.5436 289.897 27.2493C289.897 27.799 289.262 28.2886 287.889 28.2886C286.269 28.2886 284.589 27.6021 283.482 26.7405V30.6954C284.609 31.4202 286.432 31.9672 288.421 31.9672C292.272 31.9672 294.464 29.9105 294.464 27.1289C294.464 24.0137 291.677 23.0947 289.628 22.4082C288.421 21.998 287.743 21.7628 287.743 21.2513C287.743 20.7399 288.358 20.3898 289.565 20.3898C290.896 20.3898 292.535 20.8411 293.5 21.4865V17.7258C292.392 17.1187 290.899 16.7084 289.239 16.7084V16.7139H289.242ZM295.508 31.6582H299.975V17.0284H295.508V31.6582ZM306.284 27.799H307.146C309.46 27.799 310.957 26.5464 310.957 24.3529C310.957 22.1593 309.46 20.8876 307.146 20.8876H306.284V27.8017V27.799ZM315.463 24.3529C315.463 28.759 311.981 31.6582 306.98 31.6582H301.818V17.0284H306.98C311.978 17.0284 315.463 19.9467 315.463 24.3529ZM316.674 31.6582H327.247V27.8592H321.14V26.0376H326.631V22.5915H321.14V20.8301H327.247V17.0311H316.674V31.6609V31.6582ZM334.277 23.9426C335.404 23.9426 336.286 23.4339 336.286 22.4137C336.286 21.3935 335.404 20.8848 334.257 20.8848H333.315V23.9399H334.28L334.277 23.9426ZM341.591 31.6582H336.326L333.416 27.1344H333.313V31.6582H328.846V17.0284H334.297C338.128 17.0284 340.792 18.653 340.792 22.1211C340.792 23.4913 340.157 25.4906 337.616 26.5081L341.591 31.6582Z" fill="black"/>
</g>
<path d="M629.114 25.2785H636.879V25.2202L635.778 24.6074C634.499 23.878 634.499 23.382 634.499 21.1936V15.5332L642.026 23.2069C643.96 25.1326 645.329 25.7162 647.114 25.7162C648.126 25.7171 649.117 25.4336 649.97 24.8992V24.8408C648.423 24.6074 646.727 23.7613 645.031 22.069L636.939 14.1034L644.139 7.97613C645.158 7.11628 646.301 6.40842 647.531 5.87533L648.483 5.40849V5.35013H641.64V5.40849L642.235 5.96286C642.949 6.60477 643.068 7.04244 642.324 7.68435L634.469 14.4828V9.43501C634.469 7.24668 634.469 6.75066 635.749 6.02122L636.849 5.40849V5.35013H629.114V5.40849L630.215 6.02122C631.494 6.75066 631.494 7.24668 631.494 9.43501V21.1936C631.494 23.382 631.494 23.878 630.215 24.6074L629.084 25.2202L629.114 25.2785ZM607.484 5.40849L608.614 6.02122C609.864 6.75066 609.864 7.24668 609.864 9.43501V22.7692C609.864 23.9947 609.686 24.2281 608.852 24.6658L607.781 25.2493V25.3077H618.79C619.536 25.2792 620.283 25.3183 621.021 25.4244L621.467 20.4058H621.408L620.456 21.6897C619.206 23.382 618.522 23.8196 615.904 23.8196C614.889 23.8419 613.874 23.7834 612.869 23.6446V9.43501C612.869 7.24668 612.869 6.75066 614.119 6.02122L615.249 5.40849V5.35013H607.484V5.40849ZM581.302 15.008C581.302 10.0769 584.485 6.51724 589.335 6.51724C593.917 6.51724 597.309 10.4562 597.309 15.6207C597.309 20.5517 594.185 24.1114 589.335 24.1114C584.753 24.1114 581.302 20.2016 581.302 15.008ZM578.089 15.5915C578.089 21.1645 583.384 25.6286 589.335 25.6286C595.285 25.6286 600.581 20.9602 600.581 15.0371C600.581 9.46419 595.285 5 589.335 5C583.384 5 578.089 9.66844 578.089 15.5915ZM557.678 25.2785H566.039V25.2202L564.908 24.6366C563.153 23.7321 563.064 23.2069 563.064 21.1353V15.4164H566.366C567.764 15.4164 568.568 15.6207 568.955 16.2334L569.312 16.7586H569.371L569.817 12.2944H569.758L569.252 12.9072C568.717 13.6074 568.092 13.9576 566.664 13.9576H563.093V6.95491L566.247 6.80902C568.211 6.72149 568.806 7.04244 569.52 8.41379L570.115 9.63926H570.204L570.65 5.20424C569.862 5.31 569.066 5.35876 568.27 5.35013H557.708V5.40849L558.839 6.02122C560.118 6.75066 560.118 7.24668 560.118 9.43501V21.1936C560.118 23.382 560.118 23.878 558.839 24.6074L557.708 25.2202L557.678 25.2785ZM527.004 25.2785H534.055V25.2202L532.716 24.4615C531.556 23.7905 531.467 23.2361 531.467 21.6021V10.9231L546.462 25.5703H546.521V9.02653C546.521 7.39257 546.611 6.89655 547.771 6.19629L549.169 5.40849V5.35013H542.029V5.40849L543.427 6.19629C544.617 6.89655 544.706 7.39257 544.706 9.02653V19.7056L529.771 5.05836H529.711V21.6021C529.711 23.2361 529.622 23.7321 528.432 24.4324L527.033 25.2202L527.004 25.2785ZM510.491 25.2785H518.257V25.2202L517.126 24.6074C515.847 23.878 515.847 23.382 515.847 21.1936V9.43501C515.847 7.24668 515.847 6.75066 517.126 6.02122L518.257 5.40849V5.35013H510.521V5.40849L511.652 6.02122C512.901 6.75066 512.901 7.24668 512.901 9.43501V21.1936C512.901 23.382 512.901 23.878 511.652 24.6074L510.521 25.2202L510.491 25.2785ZM483 25.2785H490.765V25.2202L489.635 24.6074C488.385 23.878 488.385 23.382 488.385 21.1936V15.5332L495.913 23.2069C497.876 25.1326 499.215 25.7162 501 25.7162C502.013 25.7188 503.004 25.4351 503.856 24.8992V24.8408C502.309 24.6074 500.613 23.7613 498.888 22.069L490.855 14.1034L497.995 7.97613C498.977 7.1008 499.899 6.60477 501.446 5.84615L502.399 5.40849V5.35013H495.555V5.40849L496.151 5.93369C496.865 6.60477 496.984 7.01326 496.24 7.68435L488.355 14.4536V9.43501C488.355 7.24668 488.355 6.75066 489.605 6.02122L490.736 5.40849V5.35013H483V5.40849L484.131 6.02122C485.38 6.75066 485.38 7.24668 485.38 9.43501V21.1936C485.38 23.382 485.38 23.878 484.101 24.6074L483 25.2202V25.2785Z" fill="black"/>
<path d="M793.28 13.8814L792.914 17.0092H787.261V31.6247H784V0.376843H794.345L794.017 3.61317H787.261V13.8181H793.288L793.28 13.8814ZM883.331 3.61317H877.255V13.4081H881.506L881.5 13.4714L881.133 16.5992H877.255V17.3016V28.4336H882.042L882.036 28.4984L881.669 31.6247H877.255H873.993V0.37835H883.659L883.331 3.61317ZM810.169 32C807.24 32 805.489 29.9304 805.489 26.4634V22.1523H808.467V26.8388C808.467 28.105 808.988 28.9973 810.028 28.9973C811.162 28.9973 811.681 28.1999 811.681 26.8388C811.681 23.6959 810.782 21.0203 809.129 17.4086C807.664 14.2643 805.637 9.43313 805.637 6.19379C805.637 2.5761 807.102 0 810.457 0C813.057 0 814.709 1.97164 814.709 5.53808V10.1733H811.777V5.30293C811.777 3.89505 811.305 3.23633 810.453 3.23633C809.508 3.23633 808.846 3.84832 808.846 5.16124C808.846 6.97913 809.791 10.8893 811.587 14.9682C813.338 18.8617 814.849 22.7101 814.849 25.9931C814.849 30.871 812.058 31.9985 810.169 31.9985V32ZM913.32 32C910.39 32 908.641 29.9364 908.641 26.4634V22.1523H911.623V26.8388C911.623 28.105 912.144 28.9973 913.184 28.9973C914.318 28.9973 914.837 28.1999 914.837 26.8388C914.837 23.6959 913.938 21.0203 912.285 17.4086C910.82 14.2643 908.793 9.43313 908.793 6.19379C908.793 2.5761 910.258 0 913.613 0C916.213 0 917.865 1.97164 917.865 5.53808V10.1733H914.928V5.30293C914.928 3.89505 914.456 3.23783 913.604 3.23783C912.66 3.23783 911.998 3.84832 911.998 5.16275C911.998 6.98064 912.942 10.8908 914.739 14.9697C916.482 18.8617 918 22.7101 918 25.9946C918 30.8725 915.211 32 913.32 32ZM823.924 31.6247V16.7982H821.23V31.6247H817.92V0.376843H821.23V13.4684H823.924V0.376843H827.184V31.6247H823.924ZM830.454 0.376843H833.761V31.6247H830.454V0.376843ZM841.475 32C838.922 32 836.796 29.8414 836.796 26.6518V5.34966C836.796 2.20529 838.922 0 841.475 0C844.027 0 846.154 2.20529 846.154 5.34966V26.6518C846.154 29.8414 844.028 32 841.475 32ZM842.841 4.92609C842.841 4.08347 842.322 3.41872 841.475 3.41872C840.577 3.41872 840.108 4.07593 840.108 4.92609V27.0739C840.108 27.9648 840.58 28.5813 841.475 28.5813C842.325 28.5813 842.841 27.9783 842.841 27.0739V4.92609ZM856.464 31.6247L852.823 15.8606L852.018 11.355V31.6247H849.138V0.376843H852.445L855.471 16.1409L856.178 20.6917V0.376843H859.062V31.6247H856.464ZM867.341 31.6247H862.027V0.376843H867.341C869.183 0.376843 871.499 1.31443 871.499 5.30293V11.0747C871.499 12.7644 870.932 13.9387 869.657 14.6396C870.932 15.3933 871.499 16.5615 871.499 18.206V26.6986C871.499 30.6856 869.183 31.6247 867.341 31.6247ZM868.286 5.20948C868.286 4.12869 867.859 3.70211 867.244 3.70211H865.339V13.1865H867.103C867.812 13.1865 868.286 12.6227 868.286 11.5435V5.20948ZM868.286 17.8292C868.286 16.7982 867.812 16.1877 867.103 16.1877H865.339V28.3401H867.244C867.852 28.3401 868.286 27.8728 868.286 26.792V17.8292ZM890.518 31.6247L890.188 25.6193H887.539L887.025 31.6247H884.095L887.262 0.376843H890.808L893.926 31.6247H890.518ZM889.054 8.10966L887.823 22.2428H889.948L889.054 8.10966ZM903.409 31.6247L899.769 15.8606L898.966 11.355V31.6247H896.082V0.376843H899.391L902.416 16.1409L903.126 20.6917V0.376843H906.008V31.6247H903.409ZM800.368 31.6247L800.038 25.6193H797.39L796.871 31.6247H793.942L797.108 0.376843H800.653L803.774 31.6247H800.368ZM798.904 8.10966L797.676 22.2428H799.802L798.904 8.10966Z" fill="black"/>
<g clip-path="url(#clip2_405_143)">
<path d="M1056.52 6.44332V13.7767H1064.58V6.44332H1068.97V25.56H1064.58V17.3133H1056.52V25.56H1052.14V6.44332H1056.52ZM1078.14 18.11V25.56H1082.53V18.2267L1089.92 6.44332H1085.04L1080.41 14L1075.75 6.44332H1070.84L1078.14 18.11ZM1091.79 6.44332V25.56H1096.17V18.7067H1100.78C1101.86 18.7328 1102.94 18.555 1103.96 18.1833C1104.77 17.8793 1105.5 17.4081 1106.09 16.8033C1106.64 16.2408 1107.05 15.5692 1107.29 14.8367C1107.79 13.3614 1107.79 11.7719 1107.29 10.2967C1107.05 9.56592 1106.64 8.8957 1106.1 8.33332C1105.5 7.73025 1104.77 7.25935 1103.96 6.95332C1102.95 6.58274 1101.87 6.40609 1100.78 6.43332L1091.79 6.44332ZM1096.17 15.4433V9.70998H1099.58C1100.06 9.70763 1100.55 9.7433 1101.03 9.81665C1101.46 9.87758 1101.88 10.0179 1102.26 10.23C1102.62 10.4429 1102.91 10.7445 1103.11 11.1033C1103.34 11.5603 1103.45 12.0655 1103.43 12.5733C1103.45 13.0822 1103.34 13.5885 1103.11 14.0467C1102.91 14.4046 1102.62 14.7051 1102.26 14.9167C1101.88 15.1294 1101.46 15.2709 1101.03 15.3333C1100.55 15.405 1100.07 15.4407 1099.58 15.44L1096.17 15.4433ZM1109.54 6.44332V25.56H1124.66V22.0267H1113.92V17.3333H1123.58V14.0667H1113.92V9.97665H1124.44V6.44332H1109.54ZM1126.54 6.44332V25.56H1136.19C1137.07 25.5575 1137.95 25.4454 1138.8 25.2267C1139.61 25.0267 1140.38 24.6879 1141.06 24.2267C1141.72 23.7802 1142.26 23.1881 1142.64 22.5C1143.04 21.7242 1143.24 20.8644 1143.22 19.9967C1143.25 18.9094 1142.94 17.8388 1142.31 16.93C1141.64 16.0471 1140.67 15.4229 1139.56 15.17C1140.37 14.8263 1141.07 14.2807 1141.58 13.59C1142.07 12.8751 1142.31 12.0349 1142.28 11.1833C1142.3 10.4098 1142.15 9.6407 1141.82 8.93332C1141.53 8.34457 1141.08 7.84063 1140.52 7.47332C1139.91 7.08675 1139.23 6.81834 1138.52 6.68332C1137.66 6.51647 1136.79 6.43603 1135.92 6.44332H1126.54ZM1130.91 14.18V9.70998H1135.02C1135.4 9.70844 1135.77 9.73968 1136.15 9.80332C1136.49 9.85737 1136.81 9.97033 1137.11 10.1367C1137.39 10.2972 1137.62 10.5274 1137.78 10.8033C1137.96 11.142 1138.05 11.5198 1138.03 11.9C1138.03 12.7044 1137.78 13.2855 1137.28 13.6433C1136.71 14.0188 1136.04 14.2062 1135.35 14.1767L1130.91 14.18ZM1130.91 22.2933V17.0433H1135.69C1136.5 17.0028 1137.31 17.2219 1137.98 17.6667C1138.55 18.0867 1138.84 18.7867 1138.84 19.7667C1138.86 20.1918 1138.77 20.6147 1138.58 21C1138.42 21.3093 1138.17 21.573 1137.87 21.7667C1137.55 21.9607 1137.2 22.0963 1136.82 22.1667C1136.42 22.2463 1136.01 22.2866 1135.6 22.2867L1130.91 22.2933ZM1145.09 6.44332V25.56H1160.22V22.0267H1149.48V17.3333H1159.14V14.0667H1149.48V9.97665H1160V6.44332H1145.09ZM1169.62 6.44332L1162.09 25.56H1166.5L1168.05 21.3033H1175.5L1177.01 25.56H1181.56L1174.12 6.44332H1169.62ZM1169.2 18.17L1171.8 11.17H1171.87L1174.38 18.17H1169.2ZM1186.17 20.86C1185.92 20.3505 1185.8 19.79 1185.83 19.2267H1181.57C1181.53 20.2821 1181.76 21.3314 1182.24 22.28C1182.69 23.1154 1183.33 23.839 1184.12 24.3933C1184.95 24.961 1185.88 25.3749 1186.86 25.6133C1187.9 25.8734 1188.98 26.0033 1190.06 26C1191.27 26.0196 1192.48 25.8669 1193.64 25.5467C1194.58 25.2872 1195.47 24.8548 1196.24 24.2733C1196.92 23.7557 1197.46 23.0908 1197.81 22.3333C1198.17 21.5672 1198.35 20.7361 1198.35 19.8967C1198.39 18.9694 1198.14 18.0514 1197.63 17.26C1197.19 16.607 1196.62 16.0468 1195.94 15.6133C1195.34 15.223 1194.68 14.9208 1193.98 14.7167C1193.31 14.53 1192.8 14.4 1192.43 14.3267C1191.18 14.0267 1190.17 13.7733 1189.4 13.58C1188.78 13.4371 1188.17 13.2431 1187.59 13C1187.23 12.8633 1186.93 12.6319 1186.71 12.3333C1186.55 12.0549 1186.47 11.7404 1186.48 11.4233C1186.47 11.0706 1186.57 10.7226 1186.76 10.4233C1186.95 10.1572 1187.18 9.93015 1187.46 9.75665C1187.75 9.57475 1188.08 9.44703 1188.43 9.37998C1188.77 9.31091 1189.12 9.27518 1189.47 9.27332C1189.97 9.27078 1190.47 9.31544 1190.96 9.40665C1191.39 9.48747 1191.8 9.64097 1192.18 9.85998C1192.55 10.0745 1192.86 10.3777 1193.07 10.74C1193.3 11.18 1193.43 11.6635 1193.45 12.1567H1197.69C1197.71 11.1766 1197.48 10.2059 1197.02 9.33332C1196.59 8.56986 1195.99 7.91406 1195.25 7.41998C1194.47 6.90692 1193.61 6.53825 1192.69 6.33332C1191.71 6.10783 1190.7 5.99592 1189.69 5.99998C1188.79 5.99774 1187.89 6.10981 1187.02 6.33332C1186.15 6.55171 1185.34 6.91514 1184.61 7.40665C1183.91 7.8819 1183.33 8.49847 1182.9 9.21332C1182.44 9.99394 1182.22 10.8768 1182.24 11.77C1182.22 12.5447 1182.39 13.313 1182.76 14.0067C1183.09 14.6065 1183.55 15.1315 1184.11 15.5467C1184.69 15.966 1185.33 16.3028 1186.01 16.5467C1186.72 16.8104 1187.45 17.033 1188.19 17.2133C1188.91 17.4111 1189.63 17.5889 1190.33 17.7467C1190.98 17.8987 1191.62 18.0947 1192.23 18.3333C1192.74 18.513 1193.19 18.786 1193.59 19.1367C1193.76 19.2973 1193.89 19.4905 1193.98 19.7039C1194.07 19.9173 1194.12 20.1464 1194.11 20.3767C1194.13 20.8061 1193.99 21.2279 1193.72 21.57C1193.45 21.8865 1193.11 22.1387 1192.72 22.3067C1192.33 22.486 1191.91 22.6074 1191.48 22.6667C1191.06 22.7272 1190.65 22.7584 1190.23 22.76C1189.66 22.7633 1189.1 22.6961 1188.55 22.56C1188.04 22.4426 1187.57 22.2345 1187.14 21.9467C1186.73 21.6623 1186.4 21.2899 1186.18 20.86M1205.51 9.97665V25.56H1209.89V9.97665H1215.86V6.44332H1199.53V9.97665H1205.51Z" fill="black"/>
</g>
<defs>
<clipPath id="clip0_405_143">
<rect width="118" height="24" fill="white" transform="translate(0 4)"/>
</clipPath>
<clipPath id="clip1_405_143">
<rect width="97" height="32" fill="white" transform="translate(252)"/>
</clipPath>
<clipPath id="clip2_405_143">
<rect width="164" height="20" fill="white" transform="translate(1052 6)"/>
</clipPath>
</defs>
</svg>
